<?xml version="1.0" standalone="no"?>
<!DOCTYPE svg PUBLIC "-//W3C//DTD SVG 20010904//EN"
 "http://www.w3.org/TR/2001/REC-SVG-20010904/DTD/svg10.dtd">
<svg version="1.0" xmlns="http://www.w3.org/2000/svg"
 width="328.000000pt" height="430.000000pt" viewBox="0 0 328.000000 430.000000"
 preserveAspectRatio="xMidYMid meet">

<g transform="translate(0.000000,430.000000) scale(0.100000,-0.100000)"
fill="#000000" stroke="none">
<path d="M482 3495 c-130 -29 -203 -106 -231 -243 -11 -55 -16 -797 -5 -825 4
-13 16 -10 70 14 36 16 100 38 142 47 l77 18 6 129 c6 153 24 198 92 243 l42
27 365 0 365 0 45 -27 c75 -44 93 -87 97 -237 l3 -126 95 -3 95 -3 0 100 c0
140 13 191 60 240 58 59 89 63 475 59 356 -3 362 -4 416 -61 43 -46 52 -78 58
-211 l6 -129 85 -22 c47 -11 101 -29 120 -39 19 -10 45 -22 58 -27 l23 -9 -3
443 -3 442 -29 53 c-38 68 -79 104 -153 133 l-58 24 -1125 2 c-925 1 -1136 -1
-1188 -12z"/>
<path d="M550 2295 c-41 -7 -94 -20 -118 -28 -115 -40 -253 -158 -311 -266
-73 -138 -83 -235 -79 -741 3 -440 3 -440 74 -498 94 -77 233 -56 296 46 20
32 24 54 28 167 l5 130 1200 0 1200 0 5 -135 c4 -120 8 -139 28 -167 30 -42
67 -67 123 -82 86 -23 185 24 221 106 18 42 19 66 15 526 -3 454 -4 486 -24
543 -37 112 -105 206 -201 281 -76 60 -133 88 -223 109 -68 17 -154 18 -1119
20 -818 1 -1061 -1 -1120 -11z"/>
</g>
</svg>
